# xmcd
#
# Track frame offsets:
#	150
#	16994
#	35428
#	54050
#
# Disc length: 932 seconds
#
# Revision: 1
# Processed by: cddbd v1.5.1PL0 Copyright (c) Steve Scherf et al.
# Submitted via: EasyCDDAExtractor 6.2.0.3
#
DISCID=2203a204
DTITLE=Muse - Sing for Absolution - Ahoy Edition
DYEAR=2004
DGENRE=AlternRock
TTITLE0=Sing for absolution (radio edit)
TTITLE1=Bliss (Live at Ahoy, 6 November 2003)
TTITLE2=Sunburn (Live at Ahoy, 6 November 2003)
TTITLE3=Feeling good (Live at Ahoy, 6 November 2003)
EXTD=
EXTT0=
EXTT1=
EXTT2=
EXTT3=
PLAYORDER=
